<svg width="183" height="38" viewBox="0 0 212 44" fill="none" xmlns="http://www.w3.org/2000/svg">
<rect width="212" height="44" rx="8" fill="#000"/>
<path d="M60.4 15.2V26.5H61.8V22.5H64.7C66.8 22.5 68.3 21 68.3 18.9C68.3 16.7 66.8 15.2 64.7 15.2H60.4ZM61.8 16.5H64.3C66 16.5 66.9 17.3 66.9 18.9C66.9 20.4 65.9 21.2 64.3 21.2H61.8V16.5ZM73.3 26.6C75.7 26.6 77.2 25 77.2 22.3C77.2 19.6 75.7 17.9 73.3 17.9C70.9 17.9 69.5 19.6 69.5 22.3C69.5 25 70.9 26.6 73.3 26.6ZM73.3 25.4C71.8 25.4 70.9 24.3 70.9 22.3C70.9 20.3 71.8 19.1 73.3 19.1C74.9 19.1 75.8 20.3 75.8 22.3C75.8 24.3 74.9 25.4 73.3 25.4ZM89.3 18.1H87.9L86.3 24.8H86.2L84.3 18.1H83L81.1 24.8H81L79.3 18.1H78L80.3 26.5H81.7L83.6 20H83.7L85.6 26.5H86.9L89.3 18.1ZM93.8 19.1C95.2 19.1 96 20.1 96.1 21.6H91.4C91.5 20.1 92.5 19.1 93.8 19.1ZM96 24.3C95.7 25.1 95 25.5 93.9 25.5C92.4 25.5 91.5 24.4 91.4 22.7V22.7H97.5V22.2C97.5 19.5 96.1 17.9 93.8 17.9C91.5 17.9 90 19.6 90 22.3C90 25 91.5 26.6 93.8 26.6C95.7 26.6 97 25.8 97.4 24.3H96ZM99.3 26.5H100.6V21.3C100.6 20.1 101.6 19.2 102.8 19.2C103.1 19.2 103.6 19.3 103.7 19.3V18C103.5 17.9 103.2 17.9 103 17.9C101.9 17.9 100.9 18.5 100.7 19.3H100.6V18.1H99.3V26.5ZM108.2 19.1C109.5 19.1 110.4 20.1 110.4 21.6H105.8C105.9 20.1 106.8 19.1 108.2 19.1ZM110.4 24.3C110 25.1 109.3 25.5 108.2 25.5C106.8 25.5 105.9 24.4 105.8 22.7V22.7H111.9V22.2C111.9 19.5 110.5 17.9 108.2 17.9C105.9 17.9 104.4 19.6 104.4 22.3C104.4 25 105.9 26.6 108.2 26.6C110 26.6 111.4 25.8 111.7 24.3H110.4ZM116.8 26.6C117.9 26.6 118.9 26.1 119.5 25.2H119.6V26.5H120.9V14.7H119.5V19.4H119.4C118.9 18.5 117.9 17.9 116.8 17.9C114.6 17.9 113.2 19.6 113.2 22.3C113.2 24.9 114.6 26.6 116.8 26.6ZM117.1 19.1C118.6 19.1 119.5 20.4 119.5 22.3C119.5 24.2 118.6 25.4 117.1 25.4C115.5 25.4 114.6 24.3 114.6 22.3C114.6 20.3 115.5 19.1 117.1 19.1ZM131.5 26.6C133.7 26.6 135.1 24.9 135.1 22.3C135.1 19.6 133.7 17.9 131.5 17.9C130.4 17.9 129.4 18.5 128.9 19.4H128.8V14.7H127.4V26.5H128.7V25.2H128.8C129.4 26.1 130.4 26.6 131.5 26.6ZM131.2 19.1C132.8 19.1 133.7 20.3 133.7 22.3C133.7 24.3 132.8 25.4 131.2 25.4C129.7 25.4 128.7 24.2 128.7 22.3C128.7 20.3 129.7 19.1 131.2 19.1ZM137.3 29.5C138.8 29.5 139.4 29 140.1 27L143.4 18.1H142L139.7 25H139.6L137.3 18.1H135.8L138.9 26.5L138.8 27C138.4 28 138 28.4 137.2 28.4C137 28.4 136.8 28.4 136.7 28.4V29.5C136.8 29.5 137.1 29.5 137.3 29.5ZM154.7 26.5L158.6 15.2H156.4L153.6 24.1H153.5L150.6 15.2H148.4L152.3 26.5H154.7ZM162.7 19.3C163.8 19.3 164.6 20.1 164.6 21.4H160.6C160.7 20.1 161.5 19.3 162.7 19.3ZM164.7 24.1C164.4 24.8 163.7 25.1 162.7 25.1C161.5 25.1 160.7 24.2 160.6 22.8V22.7H166.6V22.1C166.6 19.4 165.1 17.8 162.7 17.8C160.2 17.8 158.7 19.5 158.7 22.3C158.7 25 160.2 26.7 162.7 26.7C164.7 26.7 166.1 25.7 166.5 24.1H164.7ZM168.2 26.5H170.1V21.6C170.1 20.4 171 19.6 172.3 19.6C172.6 19.6 173.1 19.6 173.3 19.7V17.9C173.1 17.8 172.7 17.8 172.5 17.8C171.4 17.8 170.4 18.4 170.2 19.3H170.1V18H168.2V26.5ZM181.7 20.8C181.5 19 180.2 17.8 178 17.8C175.4 17.8 173.9 19.4 173.9 22.2C173.9 25 175.4 26.7 178 26.7C180.1 26.7 181.5 25.5 181.7 23.7H179.9C179.7 24.6 179 25 178 25C176.7 25 175.9 24 175.9 22.2C175.9 20.4 176.6 19.4 178 19.4C179 19.4 179.7 20 179.9 20.8H181.7ZM186.8 19.3C188 19.3 188.7 20.1 188.8 21.4H184.8C184.8 20.1 185.7 19.3 186.8 19.3ZM188.8 24.1C188.5 24.8 187.9 25.1 186.9 25.1C185.6 25.1 184.8 24.2 184.8 22.8V22.7H190.7V22.1C190.7 19.4 189.3 17.8 186.8 17.8C184.3 17.8 182.8 19.5 182.8 22.3C182.8 25 184.3 26.7 186.8 26.7C188.9 26.7 190.3 25.7 190.6 24.1H188.8ZM192.4 26.5H194.4V14.6H192.4V26.5Z" fill="white"/>
<path d="M23.3 13L32.6 29H14L23.3 13Z" fill="#fff"/>
<line x1="43.5" y1="2.2e-08" x2="43.5" y2="44" stroke="#5E5E5E"/>
</svg>
